<svg width="221" height="63" viewBox="0 0 221 63" fill="none" xmlns="http://www.w3.org/2000/svg">
<g opacity="0.7">
<path d="M46.8741 31.1292C50.0896 39.1993 48.0675 48.1218 42.3547 54.0332C41.3049 55.1181 39.4816 54.4317 39.3822 52.9262C39.2717 51.2546 38.8187 49.3948 38.012 47.5129C36.7413 44.5572 34.907 42.6642 33.1832 41.8782C33.1832 41.8782 35.5257 37.0959 38.4319 34.738C42.7082 31.1181 46.8741 31.1181 46.8741 31.1181V31.1292Z" fill="white"/>
</g>
<path opacity="0.8" d="M32.1113 59.4797C32.1113 59.4797 32.3654 59.1476 32.3875 59.1033C32.7411 58.4502 32.6749 57.5756 32.045 56.9889C31.6914 56.6568 30.5864 55.4613 30.4317 55.1624C28.5753 52.8266 24.5641 44.5461 29.8018 41.8339C30.4648 41.4686 31.5478 41.1919 33.1832 41.8782C35.8462 36.476 39.8463 32.1033 46.2442 31.1624C46.4431 31.1292 46.6531 31.107 46.852 31.0849C46.7747 30.8856 46.6973 30.6974 46.6089 30.4982C45.2829 27.4428 43.2718 24.9077 40.8187 22.9705C40.8187 22.9705 40.7303 22.9041 40.6861 22.8708C40.5093 22.738 40.3325 22.6052 40.1557 22.4723C40.0784 22.417 40.001 22.3616 39.9237 22.3063C39.7469 22.1734 39.559 22.0517 39.3712 21.9299C39.327 21.8967 39.2827 21.8745 39.2385 21.8413C39.0175 21.6974 38.7966 21.5646 38.5645 21.4317C38.4872 21.3875 38.4098 21.3432 38.3324 21.2989C38.1556 21.1993 37.9678 21.0996 37.791 21C37.7247 20.9668 37.6694 20.9336 37.6031 20.9004C37.3711 20.7786 37.139 20.6679 36.8959 20.5572C36.8186 20.524 36.7413 20.4908 36.6639 20.4465C36.4761 20.3579 36.2882 20.2804 36.1003 20.203C36.023 20.1697 35.9567 20.1365 35.8794 20.1144C35.6363 20.0148 35.3931 19.9262 35.139 19.8376C35.0727 19.8155 34.9954 19.7934 34.9291 19.7601C34.7302 19.6937 34.5313 19.6273 34.3324 19.5609C34.255 19.5387 34.1777 19.5055 34.0893 19.4834C33.8351 19.4059 33.5809 19.3395 33.3157 19.2731C33.2605 19.262 33.2053 19.2509 33.15 19.2288C32.929 19.1734 32.7191 19.1292 32.4981 19.0738C32.4207 19.0517 32.3323 19.0406 32.255 19.0185C31.9898 18.9631 31.7245 18.9188 31.4483 18.8745C31.4262 18.8745 31.393 18.8745 31.3709 18.8635C31.1168 18.8303 30.8737 18.797 30.6195 18.7638C30.5422 18.7638 30.4538 18.7417 30.3765 18.7417C30.1334 18.7196 29.9013 18.6974 29.6582 18.6753C29.614 18.6753 29.5808 18.6753 29.5366 18.6753C29.2604 18.6531 28.9841 18.6421 28.7079 18.6421C28.6305 18.6421 28.5532 18.6421 28.4759 18.6421C28.2438 18.6421 28.0117 18.6421 27.7797 18.6421C27.7244 18.6421 27.6581 18.6421 27.6029 18.6421C27.3266 18.6421 27.0504 18.6642 26.7631 18.6863C26.7631 18.6863 16.5971 26.7122 18.4866 40.1624C18.4866 40.1624 19.5364 53.3247 32.0892 59.4686L32.1113 59.4797Z" fill="white"/>
<path opacity="0.9" d="M32.1003 59.5018C25.0835 56.0148 20.1884 49.7159 18.6082 40.9041C17.0612 32.3247 20.7077 24.0443 26.7963 18.6974C24.8515 18.8303 22.8956 19.2399 20.995 19.9594C15.7131 21.9299 12.4865 24.9631 10.7959 29.679C9.4809 33.3542 9.9008 36.4649 9.7682 36.7306C9.7682 36.7306 10.4865 44.5793 17.238 51.7306C17.238 51.7306 22.542 57.8192 32.0119 59.5793C32.1334 59.6015 31.9787 59.4797 32.1003 59.4908V59.5018Z" fill="white"/>
<path opacity="0.8" d="M20.7851 18.952C21.4039 18.3653 22.8183 19.0849 26.7742 16.1734C30.7411 13.2731 31.0395 7.4834 30.94 6.19926C30.94 6.19926 26.0117 6.08856 22.2437 10.9262C22.2437 10.9262 20.1884 13.1292 20.0226 16.738C20.0005 17.2472 20.0005 17.7565 20.1221 18.2435C20.2436 18.7306 20.4425 19.262 20.7961 18.941L20.7851 18.952Z" fill="white"/>
<path d="M20.8734 18.7638C20.8624 17.9114 22.3431 17.3579 22.8845 12.4649C23.426 7.58303 19.3817 3.43174 18.3761 2.64576C18.3761 2.64576 14.9617 6.19926 15.9672 12.2657C15.9672 12.2657 16.1993 15.2768 18.7297 17.834C19.0833 18.1882 19.4701 18.5314 19.901 18.786C20.332 19.0406 20.8734 19.2399 20.8624 18.7638H20.8734Z" fill="white"/>
<path d="M9.724 36.7528C9.46985 36.7306 8.98365 35.1033 8.27645 33.6089C8.0444 33.1107 7.32615 33.155 7.1383 33.6753C5.3261 38.7232 5.2819 42.8303 7.52505 48.2103C11.2931 57.2325 21.2602 61.7601 31.172 59.9779C31.4925 59.9225 31.7687 59.7786 31.9897 59.5904C20.7408 57.5314 11.8566 48.7749 9.71295 36.7528" fill="white"/>
<path d="M77.0296 38.3137H69.8802V23.9557C69.8802 22.7934 69.4603 21.797 68.6316 20.9446C67.8028 20.0922 66.7862 19.6716 65.6039 19.6716C64.4215 19.6716 63.4491 20.0922 62.5983 20.9446C61.7474 21.797 61.3275 22.7934 61.3275 23.9557V38.3137H54.145V23.9557C54.145 20.8339 55.2721 18.1439 57.5374 15.8856C59.8026 13.6384 62.4878 12.5092 65.6149 12.5092C68.7421 12.5092 71.4493 13.6273 73.6925 15.8635C75.9246 18.0996 77.0406 20.8007 77.0406 23.9557V38.3137H77.0296Z" fill="white"/>
<path d="M83.1954 16.2952C85.7148 13.7712 88.7425 12.5092 92.3006 12.5092C95.8587 12.5092 98.8864 13.7712 101.406 16.2952C103.925 18.8192 105.185 21.8524 105.185 25.417V38.3137H98.0356V25.417C98.0356 23.8229 97.472 22.4723 96.356 21.3542C95.2399 20.2362 93.8808 19.6716 92.3006 19.6716C90.7205 19.6716 89.4055 20.2362 88.2784 21.3542C87.1624 22.4723 86.5989 23.8229 86.5989 25.417C86.5989 27.0111 87.1624 28.3616 88.2784 29.4797C89.3945 30.5978 90.7315 31.1624 92.3006 31.1624C93.7261 31.1624 94.9637 30.7085 96.0134 29.7897V37.7934C94.7427 38.1476 93.5051 38.3137 92.3006 38.3137C88.7425 38.3137 85.7148 37.0517 83.1954 34.5277C80.676 32.0037 79.4164 28.9705 79.4164 25.4059C79.4164 21.8413 80.676 18.8081 83.1954 16.2841V16.2952Z" fill="white"/>
<path d="M108.246 25.417C108.246 21.8524 109.494 18.8192 112.003 16.2952C114.5 13.7712 117.528 12.5092 121.086 12.5092V19.6716C119.495 19.6716 118.147 20.2362 117.053 21.3542C115.948 22.4723 115.395 23.8229 115.395 25.417V38.3137H108.246V25.417Z" fill="white"/>
<path d="M125.738 16.2952C128.257 13.7712 131.285 12.5092 134.843 12.5092C138.401 12.5092 141.429 13.7712 143.948 16.2952C146.468 18.8192 147.727 21.8524 147.727 25.417V38.3137H140.578V25.417C140.578 23.8229 140.015 22.4723 138.898 21.3542C137.782 20.2362 136.423 19.6716 134.843 19.6716C133.263 19.6716 131.948 20.2362 130.821 21.3542C129.705 22.4723 129.141 23.8229 129.141 25.417C129.141 27.0111 129.705 28.3616 130.821 29.4797C131.937 30.5978 133.274 31.1624 134.843 31.1624C136.269 31.1624 137.506 30.7085 138.556 29.7897V37.7934C137.285 38.1476 136.048 38.3137 134.843 38.3137C131.285 38.3137 128.257 37.0517 125.738 34.5277C123.219 32.0037 121.959 28.9705 121.959 25.4059C121.959 21.8413 123.219 18.8081 125.738 16.2841V16.2952Z" fill="white"/>
<path d="M173.684 38.3137H166.535V23.9557C166.535 22.7934 166.115 21.797 165.286 20.9446C164.457 20.0922 163.441 19.6716 162.258 19.6716C161.076 19.6716 160.103 20.0922 159.253 20.9446C158.402 21.797 157.982 22.7934 157.982 23.9557V38.3137H150.799V23.9557C150.799 20.8339 151.926 18.1439 154.192 15.8856C156.457 13.6384 159.142 12.5092 162.269 12.5092C165.396 12.5092 168.104 13.6273 170.347 15.8635C172.579 18.0996 173.695 20.8007 173.695 23.9557V38.3137H173.684Z" fill="white"/>
<path d="M186.635 12.5092V39.1993C186.635 41.7565 185.728 43.9483 183.905 45.7749C182.093 47.5904 179.905 48.5092 177.341 48.5092H176.701V41.3469H177.341C177.938 41.3469 178.435 41.1365 178.855 40.7159C179.275 40.2952 179.485 39.797 179.485 39.1993V12.5092H186.635ZM180.8 6.29889C181.43 5.6679 182.192 5.34686 183.076 5.34686C183.96 5.34686 184.723 5.6679 185.353 6.29889C185.983 6.92989 186.303 7.69373 186.303 8.57934C186.303 9.46494 185.983 10.2288 185.353 10.8598C184.723 11.4908 183.96 11.8118 183.076 11.8118C182.192 11.8118 181.43 11.4908 180.8 10.8598C180.17 10.2288 179.85 9.46494 179.85 8.57934C179.85 7.69373 180.17 6.92989 180.8 6.29889V6.29889Z" fill="white"/>
<path d="M193.198 16.2952C195.718 13.7712 198.745 12.5092 202.303 12.5092C205.862 12.5092 208.889 13.7712 211.409 16.2952C213.928 18.8192 215.188 21.8524 215.188 25.417V38.3137H208.038V25.417C208.038 23.8229 207.475 22.4723 206.359 21.3542C205.243 20.2362 203.884 19.6716 202.303 19.6716C200.723 19.6716 199.408 20.2362 198.281 21.3542C197.165 22.4723 196.602 23.8229 196.602 25.417C196.602 27.0111 197.165 28.3616 198.281 29.4797C199.397 30.5978 200.734 31.1624 202.303 31.1624C203.729 31.1624 204.966 30.7085 206.016 29.7897V37.7934C204.745 38.1476 203.508 38.3137 202.303 38.3137C198.745 38.3137 195.718 37.0517 193.198 34.5277C190.679 32.0037 189.419 28.9705 189.419 25.4059C189.419 21.8413 190.679 18.8081 193.198 16.2841V16.2952Z" fill="white"/>
<path d="M55.3937 41.8007C55.5705 41.8007 55.7362 41.8672 55.8578 42C55.9904 42.1328 56.0567 42.2878 56.0567 42.4649C56.0567 42.6531 55.9904 42.8192 55.8578 42.941C55.7252 43.0627 55.5705 43.1291 55.3937 43.1291C55.2058 43.1291 55.0401 43.0627 54.9185 42.941C54.797 42.8192 54.7307 42.6531 54.7307 42.4649C54.7307 42.2878 54.797 42.1328 54.9185 42C55.0401 41.8672 55.2058 41.8007 55.3937 41.8007ZM54.8633 44.4465H55.9241V54.0775H54.8633V44.4465V44.4465Z" fill="white"/>
<path d="M61.0402 44.4354C62.0679 44.4354 62.9408 44.8007 63.6812 45.5424C64.4215 46.2841 64.7862 47.1587 64.7862 48.1882V54.0775H63.7364V48.1882C63.7364 47.4576 63.4712 46.8266 62.9408 46.3063C62.4104 45.786 61.7806 45.5203 61.0513 45.5203C60.322 45.5203 59.6921 45.786 59.1617 46.3063C58.6313 46.8266 58.3661 47.4576 58.3661 48.1882V54.0775H57.2943V48.1882C57.2943 47.1587 57.6589 46.2841 58.3993 45.5424C59.1396 44.8007 60.0126 44.4354 61.0513 44.4354H61.0402Z" fill="white"/>
<path d="M66.9741 51.3985V45.5092H65.637V44.4354H66.9741V41.7675H68.0459V44.4354H69.383V45.5092H68.0459V51.3985C68.0459 51.8413 68.2006 52.2177 68.51 52.5277C68.8194 52.8376 69.1951 52.9926 69.6371 52.9926H70.1454V54.0664H69.6371C68.8968 54.0664 68.2669 53.8007 67.7476 53.2804C67.2282 52.7602 66.9741 52.1292 66.9741 51.3985Z" fill="white"/>
<path d="M75.2947 54.0664C73.9687 54.0664 72.8416 53.6015 71.9024 52.6605C70.9631 51.7196 70.488 50.5904 70.488 49.262C70.488 47.9336 70.9521 46.8044 71.9024 45.8635C72.8416 44.9225 73.9687 44.4576 75.2947 44.4576C76.6207 44.4576 77.7478 44.9225 78.6871 45.8635C79.6263 46.8044 80.0904 47.9336 80.0904 49.262C80.0904 49.3727 80.0904 49.4613 80.0794 49.5166H71.5709C71.6261 50.4908 72.0239 51.321 72.7422 51.9963C73.4604 52.6716 74.3113 53.0037 75.2947 53.0037C75.9025 53.0037 76.466 52.8708 76.9964 52.5941C77.5268 52.3173 77.9688 51.941 78.3224 51.4539H79.5711C79.1733 52.2509 78.5876 52.8819 77.8141 53.3579C77.0517 53.834 76.2008 54.0775 75.2947 54.0775V54.0664ZM71.6482 48.4428H78.9412C78.7644 47.6015 78.3335 46.893 77.6484 46.3506C76.9633 45.8081 76.1787 45.5203 75.2947 45.5203C74.4107 45.5203 73.6262 45.797 72.9411 46.3506C72.256 46.9041 71.825 47.6015 71.6482 48.4428Z" fill="white"/>
<path d="M81.1622 48.7085C81.1622 47.5351 81.5822 46.5277 82.4109 45.6863C83.2397 44.8561 84.2562 44.4354 85.4386 44.4354H85.8806V45.5092H85.4386C84.5546 45.5092 83.8032 45.8192 83.1733 46.4391C82.5435 47.059 82.2341 47.8229 82.2341 48.6974V54.0554H81.1622V48.6974V48.7085Z" fill="white"/>
<path d="M90.6984 44.4354C91.7261 44.4354 92.599 44.8007 93.3394 45.5424C94.0797 46.2841 94.4444 47.1587 94.4444 48.1882V54.0775H93.3946V48.1882C93.3946 47.4576 93.1294 46.8266 92.599 46.3063C92.0686 45.786 91.4387 45.5203 90.7094 45.5203C89.9801 45.5203 89.3503 45.786 88.8199 46.3063C88.2895 46.8266 88.0243 47.4576 88.0243 48.1882V54.0775H86.9525V48.1882C86.9525 47.1587 87.3171 46.2841 88.0575 45.5424C88.7978 44.8007 89.6707 44.4354 90.7094 44.4354H90.6984Z" fill="white"/>
<path d="M100.29 54.0664C98.9638 54.0664 97.8367 53.6015 96.8975 52.6605C95.9582 51.7196 95.4831 50.5904 95.4831 49.262C95.4831 47.9336 95.9472 46.8044 96.8975 45.8635C97.8367 44.9225 98.9638 44.4576 100.29 44.4576C101.616 44.4576 102.743 44.9225 103.682 45.8635C104.621 46.8044 105.086 47.9336 105.086 49.262C105.086 49.3727 105.086 49.4613 105.074 49.5166H96.566C96.6212 50.4908 97.019 51.321 97.7373 51.9963C98.4555 52.6716 99.3064 53.0037 100.29 53.0037C100.898 53.0037 101.461 52.8708 101.992 52.5941C102.522 52.3173 102.964 51.941 103.318 51.4539H104.566C104.168 52.2509 103.583 52.8819 102.809 53.3579C102.047 53.834 101.196 54.0775 100.29 54.0775V54.0664ZM96.6433 48.4428H103.936C103.76 47.6015 103.329 46.893 102.643 46.3506C101.958 45.8081 101.174 45.5203 100.29 45.5203C99.4058 45.5203 98.6213 45.797 97.9362 46.3506C97.2511 46.9041 96.8201 47.6015 96.6433 48.4428Z" fill="white"/>
<path d="M106.798 51.3985V45.5092H105.461V44.4354H106.798V41.7675H107.87V44.4354H109.207V45.5092H107.87V51.3985C107.87 51.8413 108.025 52.2177 108.334 52.5277C108.644 52.8376 109.019 52.9926 109.461 52.9926H109.97V54.0664H109.461C108.721 54.0664 108.091 53.8007 107.572 53.2804C107.052 52.7602 106.798 52.1292 106.798 51.3985Z" fill="white"/>
</svg>
